<?xml version="1.0" standalone="no"?>
<!DOCTYPE svg PUBLIC "-//W3C//DTD SVG 20010904//EN"
 "http://www.w3.org/TR/2001/REC-SVG-20010904/DTD/svg10.dtd">
<svg version="1.0" xmlns="http://www.w3.org/2000/svg"
 width="1200.000000pt" height="1200.000000pt" viewBox="0 0 1200.000000 1200.000000"
 preserveAspectRatio="xMidYMid meet">

<g transform="translate(0.000000,1200.000000) scale(0.100000,-0.100000)"
fill="#000000" stroke="none">
<path d="M5984 9376 c-49 -22 -74 -61 -74 -117 0 -129 164 -175 230 -66 42 69
16 153 -56 183 -41 17 -60 17 -100 0z"/>
<path d="M6513 9356 c-67 -30 -92 -118 -53 -181 60 -97 198 -75 232 36 28 94
-86 187 -179 145z"/>
<path d="M5454 9316 c-49 -22 -74 -61 -74 -117 0 -93 87 -151 173 -116 99 42
102 184 4 230 -42 20 -62 21 -103 3z"/>
<path d="M7011 9235 c-117 -99 4 -280 140 -210 36 19 69 70 69 108 0 45 -26
94 -59 111 -47 25 -114 21 -150 -9z"/>
<path d="M4919 9157 c-107 -72 -58 -227 73 -227 43 0 55 5 83 33 110 110 -27
281 -156 194z"/>
<path d="M7532 9063 c-86 -42 -83 -187 4 -228 41 -19 68 -19 110 1 42 20 74
70 74 115 0 46 -33 97 -75 115 -44 18 -72 17 -113 -3z"/>
<path d="M4444 8941 c-47 -29 -64 -59 -64 -114 0 -42 5 -54 33 -82 63 -63 153
-54 197 17 68 112 -56 246 -166 179z"/>
<path d="M8003 8805 c-92 -40 -94 -178 -2 -227 41 -22 71 -23 115 -2 89 42 90
185 0 228 -41 19 -70 20 -113 1z"/>
<path d="M4003 8645 c-38 -16 -73 -68 -73 -108 0 -69 58 -127 127 -127 55 0
98 24 118 66 19 40 19 65 1 109 -27 64 -103 91 -173 60z"/>
<path d="M8430 8477 c-73 -25 -102 -121 -57 -188 41 -61 101 -75 167 -38 46
26 65 59 64 110 -3 88 -89 146 -174 116z"/>
<path d="M3615 8284 c-66 -33 -94 -121 -57 -180 21 -32 76 -64 111 -64 41 0
89 28 107 61 59 116 -50 240 -161 183z"/>
<path d="M8812 8089 c-98 -21 -131 -150 -56 -220 21 -20 36 -24 84 -24 48 0
63 4 84 24 96 90 16 248 -112 220z"/>
<path d="M3285 7866 c-44 -20 -66 -49 -72 -95 -17 -124 122 -195 215 -109 98
93 -20 261 -143 204z"/>
<path d="M9080 7638 c-58 -31 -87 -121 -56 -176 35 -64 139 -84 195 -37 61 52
62 132 2 189 -34 33 -102 44 -141 24z"/>
<path d="M6070 7600 c-121 -22 -211 -70 -301 -160 -66 -65 -119 -152 -143
-235 l-12 -40 -379 -5 c-373 -5 -381 -5 -411 -27 -49 -35 -64 -86 -64 -216 0
-97 3 -117 23 -151 12 -21 38 -47 57 -57 33 -18 88 -19 1325 -19 1440 0 1333
-5 1382 69 21 31 23 45 23 165 0 147 -11 178 -72 216 -31 19 -51 20 -405 20
l-372 0 -12 42 c-45 167 -185 314 -357 374 -77 26 -210 38 -282 24z m230 -167
c71 -24 149 -82 195 -144 42 -57 72 -116 63 -124 -3 -3 -181 -4 -397 -3 l-392
3 31 61 c55 111 178 203 298 224 57 10 142 3 202 -17z"/>
<path d="M2994 7377 c-28 -26 -37 -42 -41 -78 -9 -82 41 -139 122 -139 75 0
125 47 125 118 0 83 -48 132 -130 132 -32 0 -48 -7 -76 -33z"/>
<path d="M9314 7156 c-95 -43 -108 -173 -22 -226 67 -40 155 -13 184 57 43
102 -64 214 -162 169z"/>
<path d="M2812 6885 c-39 -33 -55 -86 -42 -136 24 -89 134 -120 204 -58 41 35
53 81 37 132 -18 54 -53 80 -114 85 -46 4 -57 1 -85 -23z"/>
<path d="M9454 6640 c-39 -15 -74 -68 -74 -111 0 -81 49 -129 132 -129 71 0
118 50 118 125 0 89 -92 149 -176 115z"/>
<path d="M5023 5523 c3 -1113 1 -1062 57 -1177 49 -102 147 -176 281 -213 58
-16 128 -18 804 -18 775 0 778 0 898 45 73 27 158 104 192 173 55 114 55 106
55 1205 l0 1012 -1145 0 -1146 0 4 -1027z m619 745 c78 -23 73 35 76 -878 2
-642 0 -825 -10 -855 -20 -58 -54 -78 -135 -78 -77 -1 -121 16 -140 53 -18 36
-19 1673 0 1710 26 53 121 75 209 48z m608 -4 c22 -9 46 -26 53 -38 18 -32 23
-1637 5 -1691 -20 -60 -54 -78 -141 -78 -89 0 -133 23 -142 76 -3 18 -5 404
-3 858 3 799 4 828 22 848 37 41 136 53 206 25z m593 5 c76 -21 72 35 75 -879
2 -642 0 -825 -10 -855 -20 -59 -55 -79 -136 -79 -78 0 -128 22 -143 61 -6 16
-8 337 -7 863 3 810 4 839 22 859 34 38 124 51 199 30z"/>
<path d="M2733 6375 c-49 -21 -75 -69 -70 -128 12 -141 207 -154 248 -17 10
33 9 44 -10 82 -33 69 -99 93 -168 63z"/>
<path d="M9503 6100 c-68 -41 -83 -126 -32 -184 56 -64 142 -66 193 -5 31 36
35 102 11 149 -30 58 -112 77 -172 40z"/>
<path d="M2692 5834 c-49 -34 -66 -109 -37 -164 46 -89 163 -94 222 -10 19 27
21 96 4 128 -29 55 -138 82 -189 46z"/>
<path d="M9491 5573 c-62 -31 -89 -112 -58 -173 17 -33 74 -70 109 -70 71 0
128 58 128 130 0 56 -26 95 -76 116 -43 18 -61 17 -103 -3z"/>
<path d="M2758 5302 c-106 -65 -52 -232 74 -232 113 0 164 136 82 218 -27 27
-39 32 -80 32 -28 0 -61 -8 -76 -18z"/>
<path d="M9373 5040 c-17 -10 -37 -28 -42 -39 -17 -30 -13 -108 5 -137 50 -75
179 -71 220 8 42 82 -19 188 -108 188 -25 0 -57 -8 -75 -20z"/>
<path d="M2913 4796 c-72 -32 -85 -149 -24 -209 56 -57 151 -40 195 35 45 75
-6 176 -94 184 -27 3 -58 -2 -77 -10z"/>
<path d="M9204 4550 c-36 -14 -74 -68 -74 -106 0 -78 55 -134 131 -134 42 0
53 5 84 35 31 32 35 41 35 88 0 59 -16 89 -60 112 -32 16 -83 19 -116 5z"/>
<path d="M3128 4304 c-52 -27 -74 -108 -45 -164 29 -57 112 -85 172 -58 55 25
85 121 56 177 -29 54 -124 78 -183 45z"/>
<path d="M8943 4081 c-112 -52 -88 -221 34 -238 81 -11 146 45 146 123 0 97
-91 155 -180 115z"/>
<path d="M3432 3864 c-41 -21 -62 -60 -62 -117 0 -111 132 -164 210 -84 51 53
52 122 2 178 -35 39 -99 49 -150 23z"/>
<path d="M8614 3666 c-73 -32 -97 -119 -51 -187 54 -80 158 -78 207 4 42 69
16 153 -56 183 -41 17 -60 17 -100 0z"/>
<path d="M3804 3476 c-67 -29 -94 -108 -60 -175 59 -114 236 -72 236 55 0 104
-83 160 -176 120z"/>
<path d="M8203 3290 c-40 -24 -53 -48 -53 -100 0 -86 55 -137 139 -127 117 13
153 163 55 228 -37 24 -100 24 -141 -1z"/>
<path d="M4209 3137 c-41 -27 -59 -60 -59 -107 0 -47 18 -80 59 -107 56 -38
125 -25 170 33 45 57 15 161 -54 190 -48 20 -77 18 -116 -9z"/>
<path d="M7773 3004 c-42 -21 -78 -92 -69 -136 9 -46 51 -95 87 -103 74 -16
152 32 165 104 13 69 -57 152 -129 151 -12 0 -36 -8 -54 -16z"/>
<path d="M4690 2883 c-40 -21 -80 -75 -80 -109 0 -65 71 -134 137 -134 46 0
96 39 113 88 13 37 13 47 0 84 -26 74 -103 106 -170 71z"/>
<path d="M7254 2754 c-28 -29 -34 -43 -34 -80 0 -108 88 -164 186 -118 84 40
86 169 4 218 -16 9 -49 16 -75 16 -42 0 -52 -5 -81 -36z"/>
<path d="M5179 2695 c-112 -61 -69 -235 58 -235 56 0 98 24 119 68 39 83 -20
182 -108 182 -24 -1 -55 -7 -69 -15z"/>
<path d="M6771 2632 c-95 -51 -88 -176 11 -228 37 -19 64 -18 109 8 91 51 87
185 -8 224 -44 19 -72 18 -112 -4z"/>
<path d="M5703 2590 c-89 -54 -80 -187 14 -227 53 -22 101 -11 141 32 26 29
32 43 32 81 0 56 -28 100 -76 120 -45 19 -73 18 -111 -6z"/>
<path d="M6244 2574 c-36 -18 -74 -79 -74 -121 0 -71 81 -133 154 -119 45 9
93 57 102 100 9 51 -24 118 -69 139 -43 21 -73 21 -113 1z"/>
</g>
</svg>
